<svg width="236" height="201" viewBox="0 0 236 201" fill="none" xmlns="http://www.w3.org/2000/svg">
<path d="M89.301 2.05722C65.7012 4.67375 56.8742 12.9843 47.2636 37.3395C33.3717 36.6996 26.075 40.3707 13.5064 50.5704C4.3112 61.2319 1.8779 67.7265 2.04165 80.1823C1.66208 93.2593 3.7843 99.6489 12.2325 109.164C16.2474 113.673 19.0157 115.895 24.9711 119.245C23.0061 125.509 22.2511 128.901 21.7865 134.996C22.1234 148.425 25.0156 155.154 34.5251 165.868C42.1084 176.165 49.7809 177.665 64.4607 179.099C71.9788 179.017 75.9483 179.468 85.4794 175.319L93.7595 185.399C101.503 194.756 108.976 196.389 123.695 198C141.201 197.332 148.6 192.755 159.363 180.359C168.007 186.915 173.293 187.762 182.93 187.919C195.458 185.612 202.25 184.045 210.955 177.209C223.826 167.363 226.898 159.934 227.515 144.447C227.048 135.447 226.078 130.655 221.782 123.025C230.319 113.847 234.793 108.506 233.884 93.4132C231.501 65.2029 223.653 56.5467 196.305 49.9403C193.04 18.5383 181.745 9.19002 152.994 5.20742C139.531 4.93115 133.698 8.7697 123.695 16.5482C113.807 6.24261 107.541 1.41075 89.301 2.05722Z" stroke="black" stroke-width="4"/>
</svg>
