<svg width="250" height="213" viewBox="0 0 250 213" fill="none" xmlns="http://www.w3.org/2000/svg">
<path d="M96.301 9.05722C72.7012 11.6737 63.8742 19.9843 54.2636 44.3395C40.3717 43.6996 33.075 47.3707 20.5064 57.5704C11.3112 68.2319 8.8779 74.7265 9.04165 87.1823C8.66208 100.259 10.7843 106.649 19.2325 116.164C23.2474 120.673 26.0157 122.895 31.9711 126.245C30.0061 132.509 29.2511 135.901 28.7865 141.996C29.1234 155.425 32.0156 162.154 41.5251 172.868C49.1084 183.165 56.7809 184.665 71.4607 186.099C78.9788 186.017 82.9483 186.468 92.4794 182.319L100.76 192.399C108.503 201.756 115.976 203.389 130.695 205C148.201 204.332 155.6 199.755 166.363 187.359C175.007 193.915 180.293 194.762 189.93 194.919C202.458 192.612 209.25 191.045 217.955 184.209C230.826 174.363 233.898 166.934 234.515 151.447C234.048 142.447 233.078 137.655 228.782 130.025C237.319 120.847 241.793 115.506 240.884 100.413C238.501 72.2029 230.653 63.5467 203.305 56.9403C200.04 25.5383 188.745 16.19 159.994 12.2074C146.531 11.9312 140.698 15.7697 130.695 23.5482C120.807 13.2426 114.541 8.41075 96.301 9.05722Z" fill="black" stroke="black" stroke-width="4"/>
</svg>
