<svg width="278" height="239" viewBox="0 0 278 239" fill="none" xmlns="http://www.w3.org/2000/svg">
<path d="M105.105 2.06831C77.2334 5.19213 66.8083 15.1139 55.4579 44.1911C39.051 43.4271 30.4334 47.8099 15.5894 59.9871C4.7296 72.7157 1.8558 80.4694 2.04919 95.3401C1.60091 110.952 4.10732 118.581 14.085 129.941C18.8267 135.324 22.0961 137.977 29.1297 141.976C26.809 149.454 25.9172 153.504 25.3685 160.781C25.7664 176.813 29.1823 184.847 40.4132 197.638C49.3694 209.931 58.4309 211.723 75.7683 213.434C84.6473 213.337 89.3355 213.875 100.592 208.921L110.371 220.956C119.517 232.127 128.343 234.076 145.726 236C166.401 235.203 175.14 229.738 187.851 214.939C198.06 222.766 204.302 223.777 215.684 223.965C230.48 221.21 238.503 219.339 248.783 211.178C263.985 199.423 267.612 190.554 268.341 172.064C267.79 161.32 266.644 155.598 261.571 146.489C271.652 135.532 276.937 129.155 275.863 111.136C273.048 77.4565 263.78 67.1221 231.481 59.2349C227.625 21.7447 214.285 10.584 180.329 5.82927C164.428 5.49944 157.54 10.0822 145.726 19.3687C134.047 7.06515 126.648 1.29651 105.105 2.06831Z" stroke="black" stroke-width="4"/>
</svg>
