<svg width="50" height="50" viewBox="0 0 50 50" fill="none" xmlns="http://www.w3.org/2000/svg">
<g clip-path="url(#clip0_178_534)">
<path d="M16.6667 18.3333H33.3333M16.6667 25H33.3333M16.6667 31.6667H33.3333M38.3333 40H11.6667C11.2246 40 10.8007 39.8244 10.4882 39.5118C10.1756 39.1993 10 38.7754 10 38.3333V11.6667C10 11.2246 10.1756 10.8007 10.4882 10.4882C10.8007 10.1756 11.2246 10 11.6667 10H38.3333C38.7754 10 39.1993 10.1756 39.5118 10.4882C39.8244 10.8007 40 11.2246 40 11.6667V38.3333C40 38.7754 39.8244 39.1993 39.5118 39.5118C39.1993 39.8244 38.7754 40 38.3333 40Z" stroke="#F7F1E6" stroke-width="3" stroke-linecap="round" stroke-linejoin="round"/>
</g>
<defs>
<clipPath id="clip0_178_534">
<rect width="50" height="50" fill="white"/>
</clipPath>
</defs>
</svg>
