<svg width="40" height="40" viewBox="0 0 40 40" fill="none" xmlns="http://www.w3.org/2000/svg">
<path d="M13.75 15H26.25M13.75 20H26.25M13.75 25H26.25M30 31.25H10C9.66848 31.25 9.35054 31.1183 9.11612 30.8839C8.8817 30.6495 8.75 30.3315 8.75 30V10C8.75 9.66848 8.8817 9.35054 9.11612 9.11612C9.35054 8.8817 9.66848 8.75 10 8.75H30C30.3315 8.75 30.6495 8.8817 30.8839 9.11612C31.1183 9.35054 31.25 9.66848 31.25 10V30C31.25 30.3315 31.1183 30.6495 30.8839 30.8839C30.6495 31.1183 30.3315 31.25 30 31.25Z" stroke="#181919" stroke-width="2" stroke-linecap="round" stroke-linejoin="round"/>
</svg>
