<svg width="30" height="30" viewBox="0 0 30 30" fill="none" xmlns="http://www.w3.org/2000/svg">
<circle cx="15" cy="15" r="13" fill="white" stroke="black" stroke-width="4"/>
<mask id="path-2-inside-1_111_1306" fill="white">
<path d="M15 5.06638e-06C16.9698 4.98027e-06 18.9204 0.387992 20.7403 1.14181C22.5601 1.89563 24.2137 3.00052 25.6066 4.3934C26.9995 5.78628 28.1044 7.43987 28.8582 9.25975C29.612 11.0796 30 13.0302 30 15C30 16.9698 29.612 18.9204 28.8582 20.7403C28.1044 22.5601 26.9995 24.2137 25.6066 25.6066C24.2137 26.9995 22.5601 28.1044 20.7402 28.8582C18.9204 29.612 16.9698 30 15 30L15 15L15 5.06638e-06Z"/>
</mask>
<path d="M15 5.06638e-06C16.9698 4.98027e-06 18.9204 0.387992 20.7403 1.14181C22.5601 1.89563 24.2137 3.00052 25.6066 4.3934C26.9995 5.78628 28.1044 7.43987 28.8582 9.25975C29.612 11.0796 30 13.0302 30 15C30 16.9698 29.612 18.9204 28.8582 20.7403C28.1044 22.5601 26.9995 24.2137 25.6066 25.6066C24.2137 26.9995 22.5601 28.1044 20.7402 28.8582C18.9204 29.612 16.9698 30 15 30L15 15L15 5.06638e-06Z" fill="black" stroke="black" stroke-width="8" mask="url(#path-2-inside-1_111_1306)"/>
</svg>
