<svg width="30" height="30" viewBox="0 0 30 30" fill="none" xmlns="http://www.w3.org/2000/svg">
<path d="M28 15C28 22.1797 22.1797 28 15 28C7.8203 28 2 22.1797 2 15C2 7.8203 7.8203 2 15 2C22.1797 2 28 7.8203 28 15Z" fill="white" stroke="white" stroke-width="4"/>
<mask id="path-2-inside-1_111_1313" fill="white">
<path d="M15 30C13.0302 30 11.0796 29.612 9.25975 28.8582C7.43987 28.1044 5.78628 26.9995 4.3934 25.6066C3.00052 24.2137 1.89563 22.5601 1.14181 20.7402C0.387989 18.9204 2.98682e-06 16.9698 3.15903e-06 15C3.33123e-06 13.0302 0.38799 11.0796 1.14181 9.25975C1.89563 7.43986 3.00052 5.78627 4.3934 4.3934C5.78628 3.00052 7.43987 1.89563 9.25975 1.14181C11.0796 0.387985 13.0302 -9.13982e-07 15 -6.55671e-07L15 15L15 30Z"/>
</mask>
<path d="M15 30C13.0302 30 11.0796 29.612 9.25975 28.8582C7.43987 28.1044 5.78628 26.9995 4.3934 25.6066C3.00052 24.2137 1.89563 22.5601 1.14181 20.7402C0.387989 18.9204 2.98682e-06 16.9698 3.15903e-06 15C3.33123e-06 13.0302 0.38799 11.0796 1.14181 9.25975C1.89563 7.43986 3.00052 5.78627 4.3934 4.3934C5.78628 3.00052 7.43987 1.89563 9.25975 1.14181C11.0796 0.387985 13.0302 -9.13982e-07 15 -6.55671e-07L15 15L15 30Z" fill="#222326" stroke="#222326" stroke-width="8" mask="url(#path-2-inside-1_111_1313)"/>
<path d="M28 15C28 22.1797 22.1797 28 15 28C7.8203 28 2 22.1797 2 15C2 7.8203 7.8203 2 15 2C22.1797 2 28 7.8203 28 15Z" stroke="white" stroke-width="4"/>
</svg>
