<svg width="512" height="512" viewBox="0 0 512 512" fill="none" xmlns="http://www.w3.org/2000/svg">
<path d="M138.667 426.667C106.24 426.667 78.5778 415.502 55.68 393.173C32.7822 370.702 21.3333 343.324 21.3333 311.04C21.3333 283.307 29.6533 258.56 46.2933 236.8C63.0756 215.04 84.9778 201.173 112 195.2C120.96 162.489 138.738 136.036 165.333 115.84C192.071 95.5022 222.293 85.3333 256 85.3333C297.671 85.3333 332.942 99.84 361.813 128.853C390.827 157.724 405.333 192.996 405.333 234.667C429.938 237.511 450.276 248.178 466.347 266.667C482.56 284.871 490.667 306.204 490.667 330.667C490.667 357.404 481.351 380.089 462.72 398.72C444.089 417.351 421.404 426.667 394.667 426.667" fill="black"/>
</svg>
