<svg width="50" height="50" viewBox="0 0 50 50" fill="none" xmlns="http://www.w3.org/2000/svg">
<rect x="5" y="5" width="40" height="40" rx="4" fill="black"/>
<path d="M18.0854 34L15.3494 18.4H19.5734L20.4374 25.216C20.5174 26.032 20.6054 26.848 20.7014 27.664C20.7974 28.48 20.8854 29.296 20.9654 30.112H21.0614C21.2054 29.296 21.3494 28.48 21.4934 27.664C21.6374 26.832 21.7814 26.016 21.9254 25.216L23.4134 18.4H26.8694L28.3574 25.216C28.5014 26 28.6454 26.808 28.7894 27.64C28.9334 28.456 29.0774 29.28 29.2214 30.112H29.3174C29.3974 29.28 29.4854 28.456 29.5814 27.64C29.6774 26.808 29.7654 26 29.8454 25.216L30.7094 18.4H34.6454L32.0534 34H26.8214L25.6214 27.808C25.5094 27.2 25.4054 26.584 25.3094 25.96C25.2134 25.336 25.1254 24.736 25.0454 24.16H24.9494C24.8694 24.736 24.7814 25.336 24.6854 25.96C24.6054 26.584 24.5014 27.2 24.3734 27.808L23.2214 34H18.0854Z" fill="white"/>
<rect x="5" y="5" width="40" height="40" rx="4" stroke="black" stroke-width="2"/>
</svg>
