<svg width="100" height="100" viewBox="0 0 100 100" fill="none" xmlns="http://www.w3.org/2000/svg">
<path d="M38.3333 21.2761L49 6H51L59.6667 19.2836L61.6667 23.9328L66.3333 37.8806L67 68.4328L59 84.3731L51 95L42 86.3657L33 77.7313V39.209L34.3333 30.5746L38.3333 21.2761Z" fill="#11990F"/>
<path d="M49 6L43 31.2388M49 6L38.3333 21.2761L34.3333 30.5746L33 39.209M49 6H51L59.6667 19.2836L61.6667 23.9328M43 31.2388L33 39.209M43 31.2388L51.6667 41.8657M33 39.209V77.7313L42 86.3657M51.6667 41.8657L61.6667 23.9328M51.6667 41.8657L51 79.0597M61.6667 23.9328L66.3333 37.8806L67 68.4328L59 84.3731M59 84.3731L51 79.0597M59 84.3731L51 95L42 86.3657M51 79.0597L42 86.3657" stroke="#0D6210"/>
</svg>
