<svg width="60" height="60" viewBox="0 0 60 60" fill="none" xmlns="http://www.w3.org/2000/svg">
<g clip-path="url(#clip0_6_22)">
<rect x="5" y="5" width="55" height="55" fill="#D9D9D9"/>
<rect x="1" y="1" width="53" height="53" stroke="black" stroke-width="2"/>
<path d="M33.5384 46L29.3764 31.4545H32.7358L35.1435 41.5611H35.2642L37.9205 31.4545H40.7969L43.446 41.5824H43.5739L45.9815 31.4545H49.3409L45.179 46H42.1818L39.4119 36.4901H39.2983L36.5355 46H33.5384Z" fill="black"/>
<path d="M12.677 27L8.51509 12.4545H11.8745L14.2821 22.5611H14.4029L17.0591 12.4545H19.9355L22.5847 22.5824H22.7125L25.1202 12.4545H28.4796L24.3176 27H21.3205L18.5506 17.4901H18.437L15.6742 27H12.677Z" fill="black"/>
</g>
<defs>
<clipPath id="clip0_6_22">
<rect width="60" height="60" fill="white"/>
</clipPath>
</defs>
</svg>
